<svg fill="currentColor" fill-rule="evenodd" height="1em" style="flex:none;line-height:1" viewBox="-200.008 -199.727 512 512" width="1em" xmlns="http://www.w3.org/2000/svg"><title>Xiaomi</title><path d="M204.546-41.122c1.759 0 3.223 1.417 3.223 3.161v189.386c0 1.715-1.464 3.139-3.223 3.139H163.05c-1.781 0-3.228-1.424-3.228-3.139V-37.961c0-1.743 1.446-3.161 3.228-3.161h41.496zM24.468-41.122c31.303 0 64.033 1.435 80.176 17.589 15.871 15.897 17.59 47.549 17.656 78.286v96.671c0 1.715-1.446 3.139-3.219 3.139h-41.49c-1.777 0-3.229-1.424-3.229-3.139V53.09c-.044-17.167-1.031-34.81-9.884-43.692-7.62-7.641-21.839-9.391-36.625-9.754h-75.21c-1.764 0-3.208 1.419-3.208 3.136v148.645c0 1.715-1.462 3.139-3.237 3.139h-41.516c-1.774 0-3.201-1.424-3.201-3.139V-37.961c0-1.743 1.426-3.161 3.201-3.161H24.468zm9.287 75.427c1.766 0 3.201 1.413 3.201 3.143v113.977c0 1.715-1.436 3.139-3.201 3.139H-9.829c-1.792 0-3.228-1.424-3.228-3.139V37.448c0-1.73 1.436-3.143 3.228-3.143h43.584z"/></svg>
